<?xml version="1.0" encoding="UTF-8"?>
<svg
  xmlns="http://www.w3.org/2000/svg"
  width="1200"
  height="140"
  viewBox="0 0 1200 140"
  role="img"
  aria-labelledby="title desc">
  <title id="title">Quantum Grid</title>
  <desc id="desc">Subtle diagonal grid with orbital arcs for section separation.</desc>

  <rect x="0" y="0" width="1200" height="140" fill="none" />

  <g stroke="#272c4a" stroke-width="0.6" opacity="0.65">
    <line x1="0"   y1="0"   x2="0"   y2="140" />
    <line x1="80"  y1="0"   x2="60"  y2="140" />
    <line x1="160" y1="0"   x2="120" y2="140" />
    <line x1="240" y1="0"   x2="180" y2="140" />
    <line x1="320" y1="0"   x2="240" y2="140" />
    <line x1="400" y1="0"   x2="300" y2="140" />
    <line x1="480" y1="0"   x2="360" y2="140" />
    <line x1="560" y1="0"   x2="420" y2="140" />
    <line x1="640" y1="0"   x2="480" y2="140" />
    <line x1="720" y1="0"   x2="540" y2="140" />
    <line x1="800" y1="0"   x2="600" y2="140" />
    <line x1="880" y1="0"   x2="660" y2="140" />
    <line x1="960" y1="0   "x2="720" y2="140" />
    <line x1="1040" y1="0"  x2="780" y2="140" />
    <line x1="1120" y1="0"  x2="840" y2="140" />
    <line x1="1200" y1="0"  x2="900" y2="140" />

    <line x1="0" y1="20"  x2="1200" y2="0" />
    <line x1="0" y1="50"  x2="1200" y2="30" />
    <line x1="0" y1="80"  x2="1200" y2="60" />
    <line x1="0" y1="110" x2="1200" y2="90" />
    <line x1="0" y1="140" x2="1200" y2="120" />
  </g>

  <g fill="none" stroke-width="1.1" opacity="0.9">
    <path d="M150 110 Q 220 40 330 60" stroke="#6df2c2" />
    <path d="M330 60 Q 420 90 520 70" stroke="#9aa5ff" />
    <path d="M520 70 Q 640 40 760 65" stroke="#ff9cf5" />
  </g>

  <g fill="#6df2c2">
    <circle cx="150" cy="110" r="2.5" />
    <circle cx="330" cy="60"  r="2.5" />
    <circle cx="520" cy="70"  r="2.5" />
    <circle cx="760" cy="65"  r="2.5" />
  </g>
</svg>
